<?xml version="1.0" encoding="UTF-8"?>
<svg xmlns="http://www.w3.org/2000/svg" width="512" height="384" viewBox="0 0 32 24" shape-rendering="crispEdges">
  <!-- Background -->
  <rect x="0" y="0" width="32" height="24" fill="none"/>

  <!-- Floating pixels -->
  <rect x="3" y="3" width="1" height="1" fill="#38bdf8"/>
  <rect x="6" y="5" width="1" height="1" fill="#7dd3fc"/>
  <rect x="9" y="2" width="1" height="1" fill="#0ea5e9"/>
  <rect x="27" y="4" width="1" height="1" fill="#38bdf8"/>
  <rect x="24" y="7" width="1" height="1" fill="#7dd3fc"/>

  <!-- Pixel flask outline (dark) -->
  <!-- Neck -->
  <rect x="14" y="2" width="4" height="1" fill="#0f172a"/>
  <rect x="15" y="3" width="2" height="1" fill="#0f172a"/>
  <rect x="15" y="4" width="2" height="1" fill="#0f172a"/>
  <rect x="14" y="5" width="4" height="1" fill="#0f172a"/>

  <!-- Shoulders -->
  <rect x="13" y="6" width="1" height="1" fill="#0f172a"/>
  <rect x="18" y="6" width="1" height="1" fill="#0f172a"/>
  <rect x="12" y="7" width="1" height="1" fill="#0f172a"/>
  <rect x="19" y="7" width="1" height="1" fill="#0f172a"/>

  <!-- Body outline -->
  <rect x="11" y="8" width="1" height="1" fill="#0f172a"/>
  <rect x="20" y="8" width="1" height="1" fill="#0f172a"/>
  <rect x="10" y="9" width="1" height="1" fill="#0f172a"/>
  <rect x="21" y="9" width="1" height="1" fill="#0f172a"/>
  <rect x="9" y="10" width="1" height="1" fill="#0f172a"/>
  <rect x="22" y="10" width="1" height="1" fill="#0f172a"/>
  <rect x="8" y="11" width="1" height="1" fill="#0f172a"/>
  <rect x="23" y="11" width="1" height="1" fill="#0f172a"/>
  <rect x="8" y="12" width="1" height="1" fill="#0f172a"/>
  <rect x="23" y="12" width="1" height="1" fill="#0f172a"/>
  <rect x="9" y="13" width="1" height="1" fill="#0f172a"/>
  <rect x="22" y="13" width="1" height="1" fill="#0f172a"/>
  <rect x="10" y="14" width="1" height="1" fill="#0f172a"/>
  <rect x="21" y="14" width="1" height="1" fill="#0f172a"/>
  <rect x="11" y="15" width="1" height="1" fill="#0f172a"/>
  <rect x="20" y="15" width="1" height="1" fill="#0f172a"/>
  <rect x="12" y="16" width="1" height="1" fill="#0f172a"/>
  <rect x="19" y="16" width="1" height="1" fill="#0f172a"/>
  <rect x="13" y="17" width="1" height="1" fill="#0f172a"/>
  <rect x="18" y="17" width="1" height="1" fill="#0f172a"/>
  <rect x="14" y="18" width="1" height="1" fill="#0f172a"/>
  <rect x="17" y="18" width="1" height="1" fill="#0f172a"/>
  <rect x="15" y="19" width="2" height="1" fill="#0f172a"/>

  <!-- Liquid fill (sky shades) -->
  <rect x="10" y="14" width="11" height="1" fill="#38bdf8"/>
  <rect x="9" y="15" width="13" height="1" fill="#38bdf8"/>
  <rect x="10" y="16" width="11" height="1" fill="#0ea5e9"/>
  <rect x="11" y="17" width="9" height="1" fill="#0891b2"/>
  <rect x="13" y="18" width="5" height="1" fill="#0369a1"/>

  <!-- Bubbles -->
  <rect x="16" y="12" width="1" height="1" fill="#7dd3fc"/>
  <rect x="14" y="11" width="1" height="1" fill="#7dd3fc"/>

  <!-- Base shadow -->
  <rect x="12" y="20" width="8" height="1" fill="#0ea5e9" opacity="0.5"/>
</svg>
